<mxfile host="app.diagrams.net" modified="2021-01-27T02:36:33.578Z" agent="5.0 (Windows NT 10.0; Win64; x64) AppleWebKit/537.36 (KHTML, like Gecko) Chrome/87.0.4280.141 Safari/537.36" etag="e1lP70cmIWh33PuTu26r" version="14.2.7" type="github">
  <diagram id="RfPRFkSqoJjCLH62MmH5" name="Page-1">
    <mxGraphModel dx="2302" dy="1123" grid="1" gridSize="10" guides="1" tooltips="1" connect="1" arrows="1" fold="1" page="1" pageScale="1" pageWidth="827" pageHeight="1169" math="0" shadow="0">
      <root>
        <mxCell id="0" />
        <mxCell id="1" parent="0" />
      </root>
    </mxGraphModel>
  </diagram>
</mxfile>
